<?xml version="1.0" encoding="UTF-8"?>
<svg width="70px" height="70px" viewBox="0 0 70 70" version="1.1" xmlns="http://www.w3.org/2000/svg" xmlns:xlink="http://www.w3.org/1999/xlink">
    <!-- Generator: Sketch 53.2 (72643) - https://sketchapp.com -->
    <title>Artboard Copy 9</title>
    <desc>Created with Sketch.</desc>
    <g id="Artboard-Copy-9" stroke="none" stroke-width="1" fill="none" fill-rule="evenodd">
        <rect fill="#FFFFFF" x="0" y="0" width="70" height="70"></rect>
        <path d="M14.4003906,60 L11.3144531,60 L12.5136719,54.3632812 L15.1269531,54.3632812 C16.2441406,54.3632812 16.8027344,54.890625 16.8027344,55.5625 C16.8027344,56.3203125 16.2519531,56.8828125 15.4746094,57.0273438 L15.4707031,57.0585938 C16.0644531,57.1953125 16.5175781,57.6171875 16.5175781,58.203125 C16.5175781,59.25 15.6269531,60 14.4003906,60 Z M13.9082031,55.390625 L13.6660156,56.5351562 L14.3691406,56.5351562 C14.8417969,56.5351562 15.1542969,56.25 15.1542969,55.8632812 C15.1542969,55.5859375 14.9511719,55.390625 14.5488281,55.390625 L13.9082031,55.390625 Z M13.1738281,58.8632812 L13.9785156,58.8632812 C14.5292969,58.8632812 14.8691406,58.5625 14.8691406,58.0976562 C14.8691406,57.7734375 14.6308594,57.5625 14.1738281,57.5625 L13.4472656,57.5625 L13.1738281,58.8632812 Z M23.4863281,58.6875 L23.2089844,60 L19.2324219,60 L20.4316406,54.3632812 L24.4042969,54.3632812 L24.1230469,55.6757812 L21.8066406,55.6757812 L21.6152344,56.5898438 L23.7871094,56.5898438 L23.5332031,57.7773438 L21.3613281,57.7773438 L21.1660156,58.6875 L23.4863281,58.6875 Z M30.6894531,58.6484375 L30.4003906,60 L26.4511719,60 L27.6503906,54.3632812 L29.3066406,54.3632812 L28.3964844,58.6484375 L30.6894531,58.6484375 Z M35.6738281,60 L34.0175781,60 L34.9355469,55.6757812 L33.3691406,55.6757812 L33.6503906,54.3632812 L38.4394531,54.3632812 L38.1582031,55.6757812 L36.5917969,55.6757812 L35.6738281,60 Z M40.6035156,60.0546875 C40.1542969,60.0546875 39.7910156,59.6914062 39.7910156,59.2421875 C39.7910156,58.7929688 40.1542969,58.4296875 40.6035156,58.4296875 C41.0527344,58.4296875 41.4160156,58.7929688 41.4160156,59.2421875 C41.4160156,59.6914062 41.0527344,60.0546875 40.6035156,60.0546875 Z M44.7402344,58.3398438 L46.3066406,58.3398438 C46.3535156,58.6484375 46.7246094,58.8710938 47.1894531,58.8710938 C47.6699219,58.8710938 47.9707031,58.6796875 47.9707031,58.3984375 C47.9707031,58.1914062 47.8652344,58.0703125 47.3339844,57.90625 L46.7441406,57.7265625 C45.8027344,57.4414062 45.3027344,56.9335938 45.3027344,56.1640625 C45.3027344,55.015625 46.2949219,54.265625 47.6621094,54.265625 C49.1152344,54.265625 50.0019531,54.9296875 50.0097656,56.046875 L48.4980469,56.046875 C48.4863281,55.7109375 48.1699219,55.4882812 47.7011719,55.4882812 C47.2675781,55.4882812 46.9863281,55.6835938 46.9863281,55.9492188 C46.9863281,56.1757812 47.1425781,56.3320312 47.5957031,56.4648438 L48.2128906,56.6445312 C49.2246094,56.9375 49.6621094,57.359375 49.6621094,58.171875 C49.6621094,59.359375 48.6464844,60.0976562 47.1582031,60.0976562 C45.6386719,60.0976562 44.7441406,59.453125 44.7402344,58.3398438 Z M57.7714844,60 L56.0761719,60 L56.5449219,57.8046875 L54.6386719,57.8046875 L54.1699219,60 L52.4746094,60 L53.6738281,54.3632812 L55.3691406,54.3632812 L54.9082031,56.515625 L56.8144531,56.515625 L57.2753906,54.3632812 L58.9707031,54.3632812 L57.7714844,60 Z" id="BELT.SH" fill="#000000" fill-rule="nonzero"></path>
        <g id="Group-2" transform="translate(35.000000, 28.173359) scale(-1, 1) rotate(-225.000000) translate(-35.000000, -28.173359) translate(12.000000, 5.673359)">
            <path d="M13.596757,11.3793103 L13.596757,11.3793103 L13.596757,29.6206897 L9.80365355,32.6206897 L6.01055011,29.6206897 L6.01055011,18.9655172 C6.01055011,14.7757709 9.40701062,11.3793103 13.596757,11.3793103 Z" id="Rectangle" fill="#000000"></path>
            <path d="M31.8036536,11.3793103 L35.596757,14.3793103 L39.3898605,11.3793103 L39.3898605,25.0344828 C39.3898605,29.2242291 35.9933999,32.6206897 31.8036536,32.6206897 L31.8036536,32.6206897 L31.8036536,11.3793103 Z" id="Rectangle-Copy-2" fill="#000000"></path>
            <g id="Group" transform="translate(22.817128, 22.280404) rotate(45.000000) translate(-22.817128, -22.280404) translate(6.817128, 6.780404)">
                <path d="M0.384582543,18.5905172 L24.2758621,18.5905172 C28.1327236,18.5905172 31.2823903,15.5626564 31.4774864,11.7543103 L7.5862069,11.7543103 C3.72934539,11.7543103 0.579678687,14.7821712 0.384582543,18.5905172 Z" id="Rectangle" stroke="#000000" stroke-width="0.75" fill="#FFFFFF"></path>
                <rect id="Rectangle" stroke="#000000" stroke-width="0.75" fill="#FFFFFF" x="14.0301724" y="10.9956897" width="3.80172414" height="8.35344828" rx="1"></rect>
                <rect id="Rectangle-Copy-4" fill="#000000" x="10.6206897" y="14.4137931" width="1.51724138" height="1.51724138" rx="0.75"></rect>
                <rect id="Rectangle-Copy-7" fill="#000000" x="24.2758621" y="14.4137931" width="1.51724138" height="1.51724138" rx="0.75"></rect>
                <rect id="Rectangle-Copy-5" fill="#000000" x="8.80365355" y="14.4137931" width="1" height="1.51724138"></rect>
                <rect id="Rectangle-Copy-8" fill="#000000" x="22.458826" y="14.4137931" width="1" height="1.51724138"></rect>
                <rect id="Rectangle-Copy-6" fill="#000000" x="6.06896552" y="14.4137931" width="1.51724138" height="1.51724138" rx="0.75"></rect>
                <rect id="Rectangle-Copy-9" fill="#000000" x="19.7241379" y="14.4137931" width="1.51724138" height="1.51724138" rx="0.75"></rect>
            </g>
        </g>
    </g>
</svg>